<svg width="32" height="32" viewBox="0 0 32 32" fill="none" xmlns="http://www.w3.org/2000/svg">
  <rect width="32" height="32" rx="6" fill="#3B82F6"/>
  <path d="M8 10C8 9.44772 8.44772 9 9 9H15C15.5523 9 16 9.44772 16 10V22C16 22.5523 15.5523 23 15 23H9C8.44772 23 8 22.5523 8 22V10Z" fill="white"/>
  <path d="M18 12C18 11.4477 18.4477 11 19 11H23C23.5523 11 24 11.4477 24 12V20C24 20.5523 23.5523 21 23 21H19C18.4477 21 18 20.5523 18 20V12Z" fill="white"/>
  <path d="M10 11H14V13H10V11Z" fill="#3B82F6"/>
  <path d="M10 14H14V15H10V14Z" fill="#3B82F6"/>
  <path d="M10 16H13V17H10V16Z" fill="#3B82F6"/>
  <path d="M20 13H22V14H20V13Z" fill="#3B82F6"/>
  <path d="M20 15H22V16H20V15Z" fill="#3B82F6"/>
  <path d="M20 17H22V18H20V17Z" fill="#3B82F6"/>
</svg>